# Blender v2.79 (sub 0) OBJ File: ''
# www.blender.org
o Cube
v 0.872440 -0.872440 -0.872440
v 0.872440 -0.872440 0.872440
v -0.872440 -0.872440 0.872440
v -0.872440 -0.872440 -0.872440
v 0.872440 0.872440 -0.872440
v 0.872439 0.872440 0.872441
v -0.872440 0.872440 0.872440
v -0.872440 0.872440 -0.872440
v 1.001093 -1.001093 0.000000
v 0.000000 -1.001093 -1.001093
v 1.001093 0.000000 -1.001093
v 0.000000 -1.001093 1.001093
v 1.001093 0.000000 1.001093
v -1.001093 -1.001093 -0.000000
v -1.001093 0.000000 1.001093
v -1.001093 0.000000 -1.001093
v 1.001093 1.001093 0.000001
v 0.000000 1.001093 -1.001093
v -0.000001 1.001093 1.001093
v -1.001093 1.001093 -0.000000
v 0.000000 0.000000 -1.291495
v -1.291495 0.000000 -0.000000
v -0.000000 0.000000 1.291495
v 1.291495 0.000000 0.000000
v -0.000000 1.291495 0.000000
v 0.000000 -1.291495 -0.000000
vn -0.2741 -0.9448 0.1797
vn -0.1797 0.9448 0.2741
vn 0.9448 0.1797 0.2741
vn -0.2741 0.1797 0.9448
vn -0.9448 0.1797 -0.2741
vn -0.2741 -0.1797 -0.9448
vn -0.1797 0.2741 -0.9448
vn 0.1797 0.2741 -0.9448
vn 0.2741 -0.1797 -0.9448
vn -0.9448 -0.2741 -0.1797
vn -0.9448 -0.2741 0.1797
vn -0.9448 0.1797 0.2741
vn -0.1797 -0.2741 0.9448
vn 0.1797 -0.2741 0.9448
vn 0.2741 0.1797 0.9448
vn 0.9448 -0.2741 0.1797
vn 0.9448 -0.2741 -0.1797
vn 0.9448 0.1797 -0.2741
vn 0.2741 0.9448 0.1797
vn 0.2741 0.9448 -0.1797
vn -0.1797 0.9448 -0.2741
vn -0.1797 -0.9448 -0.2741
vn 0.1797 -0.9448 -0.2741
vn 0.2741 -0.9448 0.1797
vn -0.1797 -0.9448 0.2741
vn -0.2741 0.9448 0.1797
vn 0.9448 0.2741 0.1797
vn -0.1797 0.2741 0.9448
vn -0.9448 0.2741 -0.1797
vn -0.1797 -0.2741 -0.9448
vn -0.2741 0.1797 -0.9448
vn 0.2741 0.1797 -0.9448
vn 0.1797 -0.2741 -0.9448
vn -0.9448 -0.1797 -0.2741
vn -0.9448 -0.1797 0.2741
vn -0.9448 0.2741 0.1797
vn -0.2741 -0.1797 0.9448
vn 0.2741 -0.1797 0.9448
vn 0.1797 0.2741 0.9448
vn 0.9448 -0.1797 0.2741
vn 0.9448 -0.1797 -0.2741
vn 0.9448 0.2741 -0.1797
vn 0.1797 0.9448 0.2741
vn 0.1797 0.9448 -0.2741
vn -0.2741 0.9448 -0.1797
vn -0.2741 -0.9448 -0.1797
vn 0.2741 -0.9448 -0.1797
vn 0.1797 -0.9448 0.2741
s off
f 26//1 3//1 14//1
f 25//2 7//2 19//2
f 24//3 6//3 13//3
f 23//4 7//4 15//4
f 22//5 8//5 16//5
f 21//6 4//6 16//6
f 21//7 8//7 18//7
f 5//8 21//8 18//8
f 1//9 21//9 11//9
f 22//10 4//10 14//10
f 3//11 22//11 14//11
f 7//12 22//12 15//12
f 23//13 3//13 12//13
f 2//14 23//14 12//14
f 6//15 23//15 13//15
f 24//16 2//16 9//16
f 1//17 24//17 9//17
f 5//18 24//18 11//18
f 25//19 6//19 17//19
f 5//20 25//20 17//20
f 8//21 25//21 18//21
f 26//22 4//22 10//22
f 1//23 26//23 10//23
f 2//24 26//24 9//24
f 26//25 12//25 3//25
f 25//26 20//26 7//26
f 24//27 17//27 6//27
f 23//28 19//28 7//28
f 22//29 20//29 8//29
f 21//30 10//30 4//30
f 21//31 16//31 8//31
f 5//32 11//32 21//32
f 1//33 10//33 21//33
f 22//34 16//34 4//34
f 3//35 15//35 22//35
f 7//36 20//36 22//36
f 23//37 15//37 3//37
f 2//38 13//38 23//38
f 6//39 19//39 23//39
f 24//40 13//40 2//40
f 1//41 11//41 24//41
f 5//42 17//42 24//42
f 25//43 19//43 6//43
f 5//44 18//44 25//44
f 8//45 20//45 25//45
f 26//46 14//46 4//46
f 1//47 9//47 26//47
f 2//48 12//48 26//48
